0, 0, Header, 0, 1, 96
1, 0, Start_track
1, 0, Title_t, "music9\000"
1, 0, Time_signature, 4, 2, 36, 8
1, 0, Time_signature, 4, 2, 36, 8
1, 0, Note_on_c, 0, 54, 89
1, 0, Note_on_c, 0, 55, 89
1, 0, Note_on_c, 0, 59, 89
1, 0, Note_on_c, 0, 62, 89
1, 384, Note_on_c, 0, 53, 89
1, 384, Note_off_c, 0, 54, 0
1, 384, Note_off_c, 0, 55, 0
1, 384, Note_on_c, 0, 56, 89
1, 384, Note_off_c, 0, 59, 0
1, 384, Note_on_c, 0, 59, 89
1, 384, Note_off_c, 0, 62, 0
1, 384, Note_on_c, 0, 62, 89
1, 768, Note_off_c, 0, 53, 0
1, 768, Note_on_c, 0, 55, 89
1, 768, Note_off_c, 0, 56, 0
1, 768, Note_on_c, 0, 57, 89
1, 768, Note_off_c, 0, 59, 0
1, 768, Note_on_c, 0, 60, 89
1, 768, Note_off_c, 0, 62, 0
1, 768, Note_on_c, 0, 62, 89
1, 1152, Note_on_c, 0, 54, 89
1, 1152, Note_off_c, 0, 55, 0
1, 1152, Note_on_c, 0, 56, 89
1, 1152, Note_off_c, 0, 57, 0
1, 1152, Note_off_c, 0, 60, 0
1, 1152, Note_on_c, 0, 60, 89
1, 1152, Note_off_c, 0, 62, 0
1, 1152, Note_on_c, 0, 62, 89
1, 1536, Note_off_c, 0, 54, 0
1, 1536, Note_off_c, 0, 56, 0
1, 1536, Note_off_c, 0, 60, 0
1, 1536, Note_off_c, 0, 62, 0
1, 1536, End_track
0, 0, End_of_file
