0, 0, Header, 0, 1, 96
1, 0, Start_track
1, 0, Title_t, "music7\000"
1, 0, Time_signature, 4, 2, 36, 8
1, 0, Time_signature, 4, 2, 36, 8
1, 0, Note_on_c, 0, 52, 127
1, 0, Note_on_c, 0, 59, 127
1, 0, Note_on_c, 0, 60, 127
1, 0, Note_on_c, 0, 64, 127
1, 384, Note_on_c, 0, 50, 127
1, 384, Note_off_c, 0, 52, 64
1, 384, Note_off_c, 0, 59, 64
1, 384, Note_on_c, 0, 59, 127
1, 384, Note_off_c, 0, 60, 64
1, 384, Note_on_c, 0, 60, 127
1, 384, Note_off_c, 0, 64, 64
1, 384, Note_on_c, 0, 64, 127
1, 768, Note_on_c, 0, 48, 127
1, 768, Note_off_c, 0, 50, 64
1, 768, Note_on_c, 0, 57, 127
1, 768, Note_off_c, 0, 59, 64
1, 768, Note_off_c, 0, 60, 64
1, 768, Note_on_c, 0, 62, 127
1, 768, Note_off_c, 0, 64, 64
1, 768, Note_on_c, 0, 64, 127
1, 1152, Note_off_c, 0, 48, 64
1, 1152, Note_on_c, 0, 52, 127
1, 1152, Note_on_c, 0, 55, 127
1, 1152, Note_off_c, 0, 57, 64
1, 1152, Note_on_c, 0, 59, 127
1, 1152, Note_on_c, 0, 60, 127
1, 1152, Note_off_c, 0, 62, 64
1, 1152, Note_off_c, 0, 64, 64
1, 1536, Note_off_c, 0, 52, 64
1, 1536, Note_off_c, 0, 55, 64
1, 1536, Note_off_c, 0, 59, 64
1, 1536, Note_off_c, 0, 60, 64
1, 1536, End_track
0, 0, End_of_file
