0, 0, Header, 0, 1, 96
1, 0, Start_track
1, 0, Title_t, "music2\000"
1, 0, Time_signature, 4, 2, 36, 8
1, 0, Time_signature, 4, 2, 36, 8
1, 0, Note_on_c, 0, 54, 100
1, 0, Note_on_c, 0, 59, 100
1, 0, Note_on_c, 0, 63, 100
1, 0, Note_on_c, 0, 70, 100
1, 384, Note_off_c, 0, 54, 64
1, 384, Note_on_c, 0, 56, 100
1, 384, Note_off_c, 0, 59, 64
1, 384, Note_on_c, 0, 59, 100
1, 384, Note_off_c, 0, 63, 64
1, 384, Note_on_c, 0, 63, 100
1, 384, Note_on_c, 0, 68, 100
1, 384, Note_off_c, 0, 70, 64
1, 768, Note_off_c, 0, 56, 64
1, 768, Note_on_c, 0, 57, 100
1, 768, Note_off_c, 0, 59, 64
1, 768, Note_on_c, 0, 61, 100
1, 768, Note_off_c, 0, 63, 64
1, 768, Note_on_c, 0, 64, 100
1, 768, Note_off_c, 0, 68, 64
1, 768, Note_on_c, 0, 68, 100
1, 1152, Note_off_c, 0, 57, 64
1, 1152, Note_on_c, 0, 59, 100
1, 1152, Note_off_c, 0, 61, 64
1, 1152, Note_on_c, 0, 63, 100
1, 1152, Note_off_c, 0, 64, 64
1, 1152, Note_on_c, 0, 64, 100
1, 1152, Note_off_c, 0, 68, 64
1, 1152, Note_on_c, 0, 68, 100
1, 1536, Note_off_c, 0, 59, 64
1, 1536, Note_off_c, 0, 63, 64
1, 1536, Note_off_c, 0, 64, 64
1, 1536, Note_off_c, 0, 68, 64
1, 1536, End_track
0, 0, End_of_file
