0, 0, Header, 0, 1, 96
1, 0, Start_track
1, 0, Title_t, "music14\000"
1, 0, Time_signature, 4, 2, 36, 8
1, 0, Time_signature, 4, 2, 36, 8
1, 0, Note_on_c, 0, 55, 100
1, 0, Note_on_c, 0, 57, 88
1, 0, Note_on_c, 0, 60, 88
1, 384, Note_on_c, 0, 52, 81
1, 384, Note_on_c, 0, 54, 89
1, 384, Note_off_c, 0, 55, 64
1, 384, Note_off_c, 0, 57, 64
1, 384, Note_on_c, 0, 57, 74
1, 384, Note_off_c, 0, 60, 64
1, 384, Note_on_c, 0, 62, 88
1, 768, Note_off_c, 0, 52, 64
1, 768, Note_on_c, 0, 53, 59
1, 768, Note_off_c, 0, 54, 64
1, 768, Note_on_c, 0, 55, 82
1, 768, Note_off_c, 0, 57, 64
1, 768, Note_on_c, 0, 57, 100
1, 768, Note_on_c, 0, 60, 72
1, 768, Note_off_c, 0, 62, 64
1, 1152, Note_on_c, 0, 50, 81
1, 1152, Note_off_c, 0, 53, 64
1, 1152, Note_off_c, 0, 55, 64
1, 1152, Note_on_c, 0, 55, 75
1, 1152, Note_off_c, 0, 57, 64
1, 1152, Note_on_c, 0, 59, 72
1, 1152, Note_off_c, 0, 60, 64
1, 1536, Note_off_c, 0, 50, 64
1, 1536, Note_off_c, 0, 55, 64
1, 1536, Note_off_c, 0, 59, 64
1, 1536, End_track
0, 0, End_of_file
