0, 0, Header, 0, 1, 96
1, 0, Start_track
1, 0, Title_t, "music8\000"
1, 0, Time_signature, 4, 2, 36, 8
1, 0, Time_signature, 4, 2, 36, 8
1, 0, Note_on_c, 0, 58, 127
1, 0, Note_on_c, 0, 60, 127
1, 0, Note_on_c, 0, 63, 127
1, 0, Note_on_c, 0, 67, 127
1, 384, Note_off_c, 0, 58, 64
1, 384, Note_on_c, 0, 59, 127
1, 384, Note_off_c, 0, 60, 0
1, 384, Note_on_c, 0, 62, 127
1, 384, Note_off_c, 0, 63, 0
1, 384, Note_on_c, 0, 65, 127
1, 384, Note_off_c, 0, 67, 0
1, 384, Note_on_c, 0, 67, 127
1, 768, Note_off_c, 0, 59, 0
1, 768, Note_on_c, 0, 60, 127
1, 768, Note_off_c, 0, 62, 0
1, 768, Note_on_c, 0, 63, 127
1, 768, Note_off_c, 0, 65, 64
1, 768, Note_off_c, 0, 67, 0
1, 768, Note_on_c, 0, 67, 127
1, 768, Note_on_c, 0, 68, 127
1, 1152, Note_on_c, 0, 59, 127
1, 1152, Note_off_c, 0, 60, 0
1, 1152, Note_on_c, 0, 62, 127
1, 1152, Note_on_c, 0, 65, 127
1, 1152, Note_off_c, 0, 67, 64
1, 1152, Note_on_c, 0, 67, 127
1, 1152, Note_off_c, 0, 68, 0
1, 1152, Note_off_c, 0, 63, 0
1, 1531, Note_off_c, 0, 59, 0
1, 1533, Note_off_c, 0, 62, 0
1, 1536, Note_off_c, 0, 65, 0
1, 1536, Note_off_c, 0, 67, 0
1, 1536, End_track
0, 0, End_of_file
