0, 0, Header, 0, 1, 96
1, 0, Start_track
1, 0, Title_t, "music13\000"
1, 0, Time_signature, 4, 2, 36, 8
1, 0, Time_signature, 4, 2, 36, 8
1, 0, Note_on_c, 0, 55, 100
1, 0, Note_on_c, 0, 58, 100
1, 0, Note_on_c, 0, 62, 100
1, 13, Note_on_c, 0, 65, 100
1, 384, Note_off_c, 0, 55, 64
1, 384, Note_on_c, 0, 55, 100
1, 384, Note_off_c, 0, 58, 64
1, 384, Note_on_c, 0, 58, 100
1, 384, Note_on_c, 0, 60, 100
1, 384, Note_off_c, 0, 62, 64
1, 384, Note_on_c, 0, 63, 100
1, 384, Note_off_c, 0, 65, 64
1, 768, Note_off_c, 0, 55, 64
1, 768, Note_on_c, 0, 55, 100
1, 768, Note_on_c, 0, 56, 100
1, 768, Note_off_c, 0, 58, 64
1, 768, Note_off_c, 0, 60, 64
1, 768, Note_on_c, 0, 60, 100
1, 768, Note_off_c, 0, 63, 64
1, 768, Note_on_c, 0, 63, 100
1, 1152, Note_on_c, 0, 53, 100
1, 1152, Note_off_c, 0, 55, 64
1, 1152, Note_off_c, 0, 56, 64
1, 1152, Note_on_c, 0, 56, 100
1, 1152, Note_off_c, 0, 60, 64
1, 1152, Note_on_c, 0, 60, 100
1, 1152, Note_off_c, 0, 63, 64
1, 1152, Note_on_c, 0, 63, 100
1, 1536, Note_off_c, 0, 53, 64
1, 1536, Note_off_c, 0, 56, 64
1, 1536, Note_off_c, 0, 60, 64
1, 1536, Note_off_c, 0, 63, 64
1, 1536, End_track
0, 0, End_of_file
